<svg width="24" height="24" viewBox="0 0 24 24" fill="none" xmlns="http://www.w3.org/2000/svg">
<g clip-path="url(#clip0_11601_4021)">
<path d="M5.597 5.5355C4.941 5.612 4.567 6.203 4.551 6.8635C4.5275 7.8355 4.5 9.5085 4.5 12C4.5 14.4915 4.5275 16.1645 4.551 17.1365C4.567 17.797 4.9405 18.388 5.597 18.4645C5.786 18.486 6.003 18.5 6.25 18.5C6.497 18.5 6.714 18.486 6.903 18.4645C7.559 18.388 7.933 17.797 7.949 17.1365C7.9725 16.1645 8 14.4915 8 12C8 9.5085 7.9725 7.8355 7.949 6.8635C7.933 6.203 7.5595 5.612 6.903 5.536C6.714 5.514 6.497 5.5 6.25 5.5C6.003 5.5 5.786 5.514 5.597 5.5355Z" stroke="white" stroke-width="1.5" stroke-linecap="round" stroke-linejoin="round"/>
<path d="M18.403 5.5355C19.059 5.612 19.433 6.203 19.449 6.8635C19.4725 7.8355 19.5 9.5085 19.5 12C19.5 14.4915 19.4725 16.1645 19.449 17.1365C19.433 17.797 19.0595 18.388 18.403 18.4645C18.214 18.486 17.997 18.5 17.75 18.5C17.503 18.5 17.286 18.486 17.097 18.4645C16.441 18.388 16.067 17.797 16.051 17.1365C16.0275 16.1645 16 14.4915 16 12C16 9.5085 16.0275 7.8355 16.051 6.8635C16.067 6.203 16.4405 5.612 17.097 5.536C17.286 5.514 17.503 5.5 17.75 5.5C17.997 5.5 18.214 5.514 18.403 5.5355Z" stroke="white" stroke-width="1.5" stroke-linecap="round" stroke-linejoin="round"/>
<path d="M7.9965 13.4912C10.6655 13.5056 13.3345 13.5034 16.0035 13.4847M16.003 10.5152C14.796 10.5067 13.303 10.5002 11.4995 10.5002C10.1655 10.5002 9.0005 10.5037 7.996 10.5092M1.5275 9.4017C1.5455 8.6567 2.0195 8.0277 2.7645 8.0037C2.92146 7.99877 3.07854 7.99877 3.2355 8.0037C3.9805 8.0277 4.4545 8.6562 4.4725 9.4017C4.4875 10.0132 4.5 10.8697 4.5 12.0002C4.5 13.1307 4.487 13.9872 4.4725 14.5987C4.4545 15.3437 3.9805 15.9727 3.2355 15.9967C3.07854 16.0016 2.92146 16.0016 2.7645 15.9967C2.0195 15.9727 1.5455 15.3442 1.5275 14.5987C1.5125 13.9872 1.5 13.1307 1.5 12.0002C1.5 10.8697 1.513 10.0132 1.5275 9.4017ZM22.4725 9.4017C22.4545 8.6567 21.9805 8.0277 21.2355 8.0037C21.0785 7.99877 20.9215 7.99877 20.7645 8.0037C20.0195 8.0277 19.5455 8.6562 19.5275 9.4017C19.5125 10.0132 19.5 10.8697 19.5 12.0002C19.5 13.1307 19.513 13.9872 19.5275 14.5987C19.5455 15.3437 20.0195 15.9727 20.7645 15.9967C20.9215 16.0016 21.0785 16.0016 21.2355 15.9967C21.9805 15.9727 22.4545 15.3442 22.4725 14.5987C22.4875 13.9872 22.5 13.1307 22.5 12.0002C22.5 10.8697 22.487 10.0132 22.4725 9.4017Z" stroke="white" stroke-width="1.5" stroke-linecap="round" stroke-linejoin="round"/>
</g>
<defs>
<clipPath id="clip0_11601_4021">
<rect width="24" height="24" fill="white"/>
</clipPath>
</defs>
</svg>
