<svg preserveAspectRatio="none" overflow="visible" style="display: block;" width="357.517" height="52.4308" viewBox="0 0 357.517 52.4308" fill="none" xmlns="http://www.w3.org/2000/svg">
<g id="nutrition">
<path d="M0.21543 51.1502V49.5682L2.29792 48.9655C3.20752 48.7144 3.82987 48.2373 4.16499 47.5342C4.54797 46.8312 4.73947 45.9774 4.73947 44.973V8.51247C4.30861 7.55827 3.92562 6.85518 3.59051 6.40319C3.30327 5.90098 2.99209 5.4741 2.65697 5.12255C2.32186 4.771 1.86706 4.36923 1.29258 3.91724L0 2.93793V1.35597H12.2795L36.1205 35.5565V7.60849C36.1205 6.60407 35.9529 5.7252 35.6178 4.97189C35.3306 4.21857 34.7082 3.71636 33.7508 3.46525L31.5965 2.93793V1.35597H42.2962V2.93793L40.5009 3.46525C39.5913 3.76658 39.0168 4.2939 38.7775 5.04722C38.586 5.75031 38.4902 6.60407 38.4902 7.60849V51.4515H34.4689L7.1092 11.9777V44.8976C7.1092 45.9523 7.25282 46.8312 7.54006 47.5342C7.8273 48.2373 8.42572 48.7144 9.33531 48.9655L11.2742 49.5682V51.1502H0.21543Z" fill="#F4E391"/>
<path d="M68.3262 52.4308C64.7357 52.4308 61.5521 51.7528 58.7755 50.3969C56.0467 49.0409 53.8924 46.9065 52.3125 43.9937C50.7806 41.0306 50.0146 37.1385 50.0146 32.3173V24.1814C50.0146 21.3691 50.0146 18.5316 50.0146 15.669C50.0146 12.8064 49.9907 9.91866 49.9428 7.00584C49.9428 5.04722 49.0572 3.8168 47.2858 3.31459L45.706 2.93793V1.35597H65.0947V2.93793L63.0841 3.38992C61.2649 3.84191 60.3553 5.09744 60.3553 7.1565C60.3074 9.96888 60.2835 12.8064 60.2835 15.669C60.2835 18.4814 60.2835 21.3188 60.2835 24.1814V33.7486C60.2835 38.62 61.217 42.1355 63.0841 44.295C64.999 46.4545 67.7039 47.5342 71.1986 47.5342C74.8849 47.5342 77.7573 46.3792 79.8158 44.069C81.9223 41.7086 82.9755 38.2182 82.9755 33.5979V7.3825C82.9755 6.37808 82.784 5.49921 82.401 4.74589C82.018 3.99257 81.3478 3.51547 80.3903 3.31459L78.6669 2.93793V1.35597H89.7256V2.93793L87.7149 3.38992C86.8053 3.59081 86.183 4.04279 85.8479 4.74589C85.5128 5.44898 85.3452 6.30274 85.3452 7.30717V33.1459C85.3452 39.3733 83.7893 44.1443 80.6775 47.4589C77.5658 50.7735 73.4487 52.4308 68.3262 52.4308Z" fill="#F4E391"/>
<path d="M101.896 51.1502V49.5682L104.769 48.9655C106.779 48.5136 107.785 47.2831 107.785 45.2743V24.7088C107.785 21.1933 107.785 17.6778 107.785 14.1623C107.785 10.6469 107.761 7.13139 107.713 3.61592H102.04C100.508 3.61592 99.383 4.0428 98.6649 4.89655C97.9468 5.75031 97.2287 6.95562 96.5106 8.51247L93.9972 14.087H91.9865L92.3456 1.35597H133.565L133.924 14.087H131.913L129.4 8.51247C128.681 6.95562 127.963 5.75031 127.245 4.89655C126.527 4.0428 125.402 3.61592 123.87 3.61592H118.125V45.2743C118.125 47.3334 119.131 48.5638 121.141 48.9655L124.086 49.5682V51.1502H101.896Z" fill="#F4E391"/>
<path d="M137.013 51.1502V49.5682L138.521 49.1162C139.479 48.8149 140.077 48.388 140.316 47.8356C140.604 47.2329 140.747 46.4043 140.747 45.3496C140.795 42.4368 140.819 39.524 140.819 36.6112C140.819 33.6983 140.819 30.7604 140.819 27.7974V24.7088C140.819 21.7959 140.819 18.8831 140.819 15.9703C140.819 13.0575 140.795 10.1447 140.747 7.23184C140.747 6.17719 140.628 5.37365 140.388 4.82122C140.149 4.21857 139.55 3.76658 138.593 3.46525L137.013 2.93793V1.35597H157.12C162.721 1.35597 167.03 2.48594 170.046 4.74589C173.11 6.95562 174.642 10.0693 174.642 14.087C174.642 16.2967 173.804 18.5316 172.128 20.7915C170.501 23.0515 167.987 24.7841 164.588 25.9894L174.354 45.9523C175.168 47.6096 176.437 48.7396 178.16 49.3422L179.525 49.6435V51.1502H166.814L156.115 27.6467H150.944C150.944 31.2124 150.944 34.4265 150.944 37.2892C150.944 40.1518 150.968 42.8386 151.016 45.3496C151.016 46.3541 151.16 47.1576 151.447 47.7602C151.782 48.3629 152.404 48.7898 153.314 49.0409L155.037 49.5682V51.1502H137.013ZM150.944 25.4621H154.822C158.221 25.4621 160.71 24.5581 162.29 22.7501C163.87 20.9422 164.66 18.18 164.66 14.4637C164.66 10.7473 163.894 8.01026 162.362 6.25252C160.878 4.44456 158.46 3.54059 155.109 3.54059H151.016C151.016 5.49921 150.992 7.50805 150.944 9.56711C150.944 11.576 150.944 13.861 150.944 16.4223C150.944 18.9333 150.944 21.9466 150.944 25.4621Z" fill="#F4E391"/>
<path d="M181.894 51.1502V49.5682L183.331 49.1162C184.288 48.7647 184.91 48.3127 185.198 47.7602C185.533 47.1576 185.7 46.3289 185.7 45.2743V7.23184C185.7 6.17719 185.533 5.37365 185.198 4.82122C184.91 4.21857 184.288 3.74147 183.331 3.38992L181.894 2.93793V1.35597H199.847V2.93793L198.411 3.38992C197.501 3.74147 196.879 4.21857 196.544 4.82122C196.209 5.37365 196.041 6.17719 196.041 7.23184V45.2743C196.041 46.3289 196.209 47.1576 196.544 47.7602C196.879 48.3127 197.501 48.7647 198.411 49.1162L199.847 49.5682V51.1502H181.894Z" fill="#F4E391"/>
<path d="M212.837 51.1502V49.5682L215.71 48.9655C217.72 48.5136 218.726 47.2831 218.726 45.2743V24.7088C218.726 21.1933 218.726 17.6778 218.726 14.1623C218.726 10.6469 218.702 7.13139 218.654 3.61592H212.981C211.449 3.61592 210.324 4.0428 209.606 4.89655C208.888 5.75031 208.17 6.95562 207.452 8.51247L204.938 14.087H202.928L203.287 1.35597H244.506L244.865 14.087H242.854L240.341 8.51247C239.623 6.95562 238.904 5.75031 238.186 4.89655C237.468 4.0428 236.343 3.61592 234.811 3.61592H229.066V45.2743C229.066 47.3334 230.072 48.5638 232.082 48.9655L235.027 49.5682V51.1502H212.837Z" fill="#F4E391"/>
<path d="M247.954 51.1502V49.5682L249.39 49.1162C250.348 48.7647 250.97 48.3127 251.257 47.7602C251.593 47.1576 251.76 46.3289 251.76 45.2743V7.23184C251.76 6.17719 251.593 5.37365 251.257 4.82122C250.97 4.21857 250.348 3.74147 249.39 3.38992L247.954 2.93793V1.35597H265.907V2.93793L264.47 3.38992C263.561 3.74147 262.939 4.21857 262.603 4.82122C262.268 5.37365 262.101 6.17719 262.101 7.23184V45.2743C262.101 46.3289 262.268 47.1576 262.603 47.7602C262.939 48.3127 263.561 48.7647 264.47 49.1162L265.907 49.5682V51.1502H247.954Z" fill="#F4E391"/>
<path d="M290.345 52.4308C287.425 52.4308 284.624 51.8784 281.943 50.7735C279.262 49.6686 276.845 48.0365 274.691 45.877C272.584 43.6672 270.909 40.9302 269.664 37.6658C268.419 34.4014 267.797 30.5846 267.797 26.2154C267.797 21.9466 268.419 18.18 269.664 14.9157C270.909 11.6513 272.584 8.91424 274.691 6.70451C276.845 4.49479 279.262 2.83749 281.943 1.73263C284.672 0.577542 287.473 0 290.345 0C293.218 0 295.994 0.552432 298.675 1.6573C301.404 2.76216 303.822 4.41945 305.928 6.62918C308.034 8.78869 309.71 11.5006 310.955 14.765C312.199 18.0294 312.822 21.8462 312.822 26.2154C312.822 30.4842 312.199 34.2508 310.955 37.5151C309.71 40.7795 308.034 43.5166 305.928 45.7263C303.822 47.936 301.428 49.6184 298.747 50.7735C296.066 51.8784 293.265 52.4308 290.345 52.4308ZM290.345 50.1709C293.074 50.1709 295.276 49.4426 296.952 47.9862C298.627 46.4796 299.848 43.9686 300.614 40.4531C301.38 36.9376 301.763 32.1917 301.763 26.2154C301.763 20.2391 301.38 15.5183 300.614 12.0531C299.848 8.53758 298.627 6.05164 296.952 4.59523C295.276 3.0886 293.074 2.33528 290.345 2.33528C287.664 2.33528 285.462 3.0886 283.739 4.59523C282.063 6.05164 280.842 8.53758 280.076 12.0531C279.31 15.5183 278.927 20.2391 278.927 26.2154C278.927 32.1917 279.31 36.9376 280.076 40.4531C280.842 43.9686 282.063 46.4796 283.739 47.9862C285.462 49.4426 287.664 50.1709 290.345 50.1709Z" fill="#F4E391"/>
<path d="M315.437 51.1502V49.5682L317.519 48.9655C318.429 48.7144 319.051 48.2373 319.386 47.5342C319.769 46.8312 319.961 45.9774 319.961 44.973V8.51247C319.53 7.55827 319.147 6.85518 318.812 6.40319C318.524 5.90098 318.213 5.4741 317.878 5.12255C317.543 4.771 317.088 4.36923 316.514 3.91724L315.221 2.93793V1.35597H327.501L351.342 35.5565V7.60849C351.342 6.60407 351.174 5.7252 350.839 4.97189C350.552 4.21857 349.929 3.71636 348.972 3.46525L346.818 2.93793V1.35597H357.517V2.93793L355.722 3.46525C354.812 3.76658 354.238 4.2939 353.999 5.04722C353.807 5.75031 353.711 6.60407 353.711 7.60849V51.4515H349.69L322.33 11.9777V44.8976C322.33 45.9523 322.474 46.8312 322.761 47.5342C323.048 48.2373 323.647 48.7144 324.556 48.9655L326.495 49.5682V51.1502H315.437Z" fill="#F4E391"/>
</g>
</svg>
