<svg preserveAspectRatio="none" overflow="visible" style="display: block;" width="245.667" height="227.333" viewBox="0 0 245.667 227.333" fill="none" xmlns="http://www.w3.org/2000/svg">
<g id="Frame 2147226723">
<g id="Group 1707478100">
<path id="Vector 7505" d="M162.194 65.6383L240.333 90.864V146.833H5.33333V5.72748L84.9301 30.559L162.194 65.6383Z" fill="url(#paint0_linear_0_4)"/>
<path id="Vector 7504" d="M161.903 65.2442L161.601 66.1976L161.549 66.1812L161.5 66.1593L161.903 65.2442ZM83.1807 30.559L83.489 29.6077L83.5374 29.6233L83.5839 29.6438L83.1807 30.559ZM240.333 90.0757L240.031 91.029L161.601 66.1976L161.903 65.2442L162.205 64.2908L240.635 89.1223L240.333 90.0757ZM161.903 65.2442L161.5 66.1593L82.7775 31.4741L83.1807 30.559L83.5839 29.6438L162.306 64.3291L161.903 65.2442ZM83.1807 30.559L82.8725 31.5103L5.02507 6.28464L5.33333 5.33333L5.64159 4.38203L83.489 29.6077L83.1807 30.559ZM245.667 90.0757C245.667 93.0212 243.279 95.409 240.333 95.409C237.388 95.409 235 93.0212 235 90.0757C235 87.1302 237.388 84.7423 240.333 84.7423C243.279 84.7423 245.667 87.1302 245.667 90.0757ZM10.6667 5.33333C10.6667 8.27885 8.27885 10.6667 5.33333 10.6667C2.3878 10.6667 0 8.27885 0 5.33333C0 2.38781 2.3878 0 5.33333 0C8.27885 0 10.6667 2.38781 10.6667 5.33333Z" fill="#17925A"/>
</g>
<circle id="Ellipse 2195" cx="88.3333" cy="32.3333" r="4" fill="#17925A"/>
<circle id="Ellipse 2196" cx="165.333" cy="66.3333" r="4" fill="#17925A"/>
</g>
<defs>
<linearGradient id="paint0_linear_0_4" x1="122.333" y1="38.0478" x2="122.644" y2="146.834" gradientUnits="userSpaceOnUse">
<stop stop-color="white"/>
<stop offset="1" stop-color="white" stop-opacity="0"/>
</linearGradient>
</defs>
</svg>
